<?xml version="1.0" standalone="no"?>
<!DOCTYPE svg PUBLIC "-//W3C//DTD SVG 20010904//EN"
 "http://www.w3.org/TR/2001/REC-SVG-20010904/DTD/svg10.dtd">
<svg version="1.0" xmlns="http://www.w3.org/2000/svg"
 width="95.000000pt" height="93.000000pt" viewBox="0 0 95.000000 93.000000"
 preserveAspectRatio="xMidYMid meet">
<metadata>
Created by potrace 1.10, written by Peter Selinger 2001-2011
</metadata>
<g transform="translate(0.000000,93.000000) scale(0.100000,-0.100000)"
fill="#000000" stroke="none">
<path d="M476 859 c4 -8 -1 -9 -16 -4 -15 5 -26 2 -31 -6 -8 -12 -10 -12 -18
-1 -12 19 -46 10 -45 -11 1 -13 -4 -15 -20 -11 -14 3 -28 -1 -36 -11 -11 -13
-15 -13 -23 -3 -6 9 -7 8 -3 -4 3 -10 1 -18 -4 -18 -6 0 -10 -5 -10 -12 0 -9
3 -9 12 0 20 20 28 14 18 -13 -6 -16 -6 -25 0 -25 5 0 13 12 16 27 6 23 8 24
19 10 18 -25 26 -21 19 8 -5 19 -2 25 10 25 9 0 16 6 14 13 -3 13 3 17 23 17
5 0 7 -5 3 -11 -4 -7 0 -9 14 -5 14 5 21 1 25 -14 3 -11 11 -20 17 -20 7 0 10
7 6 15 -3 8 -2 15 3 15 5 0 14 -7 21 -15 7 -8 17 -15 23 -15 6 0 1 10 -11 23
-23 24 -30 43 -12 32 6 -3 7 1 4 9 -3 9 -10 16 -16 16 -5 0 -6 -5 -2 -11z"/>
<path d="M516 851 c10 -10 24 -16 31 -14 7 3 23 -8 36 -23 l25 -28 0 28 c0 20
-7 30 -26 37 -14 5 -31 8 -38 5 -8 -3 -16 -1 -19 4 -4 6 -11 10 -17 10 -6 0
-3 -8 8 -19z"/>
<path d="M640 830 c0 -5 6 -10 14 -10 7 0 20 -7 27 -16 7 -9 24 -20 37 -25 13
-5 26 -18 29 -29 3 -11 11 -20 18 -20 16 0 27 -28 18 -45 -6 -9 -16 -1 -36 27
-16 22 -22 37 -15 34 7 -4 4 -1 -6 6 -10 7 -26 21 -35 31 -8 9 -23 17 -33 17
-9 0 -20 5 -23 10 -3 6 -11 10 -17 10 -7 0 -6 -6 2 -15 7 -8 21 -15 31 -15 22
0 24 -10 7 -29 -11 -11 -9 -13 9 -9 17 5 26 -3 48 -44 26 -48 48 -62 25 -16
-9 19 -7 18 10 -5 12 -15 26 -25 31 -21 10 6 12 -7 9 -44 -1 -13 3 -21 11 -20
7 2 18 -15 25 -37 8 -28 14 -35 18 -24 4 8 2 28 -3 42 -6 15 -8 27 -4 27 3 0
0 8 -8 18 -8 9 -20 28 -28 42 -13 23 -11 23 18 -5 19 -18 30 -37 28 -47 -3 -9
1 -19 8 -22 15 -5 27 -46 14 -46 -5 0 -9 -7 -9 -15 0 -22 18 -18 25 5 7 21
-26 103 -51 129 -8 9 -25 31 -37 50 -12 19 -49 54 -82 77 -63 45 -75 50 -75
34z"/>
<path d="M536 798 c4 -6 -1 -17 -11 -24 -10 -8 -16 -17 -12 -20 4 -4 14 -1 23
7 10 8 19 10 21 4 2 -5 14 -32 28 -60 l25 -50 -5 40 -6 40 35 -40 c45 -52 46
-36 1 25 -19 26 -32 50 -28 54 3 3 -1 6 -11 6 -9 0 -19 7 -22 15 -4 8 -15 15
-26 15 -12 0 -17 -4 -12 -12z"/>
<path d="M390 790 c-13 -9 -13 -11 0 -20 13 -8 13 -10 -1 -10 -8 0 -26 -11
-39 -25 -13 -14 -19 -25 -13 -25 6 0 16 7 23 15 22 27 30 16 30 -41 0 -65 23
-73 28 -9 l3 38 25 -37 c35 -52 49 -35 19 24 -14 27 -25 51 -25 54 0 3 14 1
30 -4 17 -5 30 -5 30 0 0 9 -34 19 -70 21 -14 0 -19 3 -12 6 6 2 10 9 6 14 -7
11 -15 11 -34 -1z"/>
<path d="M208 758 c-8 -13 -20 -39 -26 -58 -11 -32 -10 -33 3 -16 8 11 15 25
15 30 0 6 4 5 9 -2 6 -10 10 -5 14 17 4 18 13 31 22 31 8 0 15 5 15 10 0 19
-38 10 -52 -12z"/>
<path d="M243 700 c-17 -10 -37 -28 -43 -39 -14 -27 -30 -27 -37 0 -4 16 -8
17 -14 7 -7 -10 -9 -10 -9 2 0 8 -9 0 -20 -18 -26 -42 -25 -51 2 -21 18 20 20
21 13 4 -4 -11 -9 -49 -10 -85 -3 -53 -2 -58 5 -25 6 34 7 36 9 11 2 -46 14
-21 15 31 1 27 5 49 9 50 5 0 21 13 36 27 l27 26 -2 -62 -3 -63 13 50 14 50 7
-32 c13 -57 27 -37 20 27 l-7 60 29 0 c22 0 25 2 13 10 -21 14 -31 12 -67 -10z"/>
<path d="M513 684 c-6 -17 12 -34 39 -34 25 0 31 16 12 34 -20 20 -43 20 -51
0z"/>
<path d="M322 638 c-18 -18 -14 -38 7 -38 22 0 45 25 36 40 -8 13 -28 13 -43
-2z"/>
<path d="M553 642 c-23 -2 -37 -13 -57 -42 -31 -47 -16 -67 18 -25 13 16 25
24 28 19 3 -5 14 -51 23 -101 10 -51 22 -93 27 -93 6 0 8 29 6 65 -1 36 0 65
3 65 3 0 16 -25 28 -56 15 -36 27 -52 33 -46 6 6 -2 40 -25 96 -19 47 -31 86
-28 86 4 0 17 -7 29 -16 29 -20 44 -8 17 13 -37 27 -70 39 -102 35z"/>
<path d="M685 619 c-9 -39 0 -48 16 -17 12 21 14 17 36 -62 19 -72 22 -78 19
-38 -4 52 8 56 19 8 4 -17 11 -30 17 -30 6 0 8 -14 3 -37 -6 -36 -6 -37 10
-18 15 19 16 16 10 -50 -4 -50 -3 -66 4 -55 6 8 11 24 12 35 0 20 0 20 10 0 6
-14 7 -3 3 34 -5 39 -3 56 7 62 24 15 29 10 29 -26 0 -19 -4 -35 -9 -35 -8 0
-17 -35 -23 -91 -3 -25 -42 -18 -46 9 -2 12 -7 22 -12 22 -11 0 -21 -30 -14
-41 3 -5 2 -15 -3 -21 -4 -7 -8 -22 -9 -33 -1 -11 -4 -33 -8 -50 -7 -29 -7
-29 6 -7 8 12 17 20 21 16 4 -4 2 -13 -4 -21 -6 -7 -7 -13 -2 -13 28 0 109
161 97 193 -3 8 1 21 8 28 11 12 13 42 9 117 -2 22 -19 12 -26 -15 -6 -25 -8
-26 -19 -11 -7 9 -20 16 -30 15 -13 -2 -24 14 -42 63 -29 78 -28 76 -6 59 9
-7 6 -1 -7 14 -34 38 -67 36 -76 -4z m155 -352 c0 -8 -9 -24 -20 -37 -11 -13
-20 -28 -20 -33 0 -6 -3 -8 -6 -5 -8 9 7 79 16 73 5 -3 11 -1 15 5 9 14 15 13
15 -3z"/>
<path d="M337 586 c-32 -14 -70 -70 -65 -95 3 -11 10 -6 23 19 l19 35 13 -90
c7 -49 15 -96 18 -104 11 -30 20 3 17 67 l-2 67 29 -62 c16 -35 35 -63 40 -63
15 0 14 4 -19 100 -38 110 -38 112 4 95 31 -13 46 -11 46 6 0 7 -74 40 -88 38
-4 0 -20 -6 -35 -13z m20 -39 c-2 -7 0 -20 4 -29 5 -9 5 -19 0 -22 -11 -7 -32
40 -25 59 7 17 27 9 21 -8z"/>
<path d="M80 551 c-13 -48 -13 -112 0 -91 5 8 10 33 10 54 0 22 7 47 15 56 13
15 13 17 0 17 -9 0 -19 -15 -25 -36z"/>
<path d="M174 555 c-4 -14 -4 -28 -1 -31 3 -3 -5 -26 -18 -50 -16 -31 -20 -44
-10 -44 7 0 16 10 20 23 5 16 10 4 16 -48 11 -81 32 -117 24 -40 l-5 50 15
-40 c16 -40 35 -68 35 -50 0 6 -11 45 -24 88 -14 42 -22 77 -20 77 3 0 14 -5
24 -10 32 -17 33 7 1 29 -15 11 -30 18 -33 16 -2 -3 -3 9 0 25 5 37 -15 41
-24 5z"/>
<path d="M800 521 c0 -22 16 -36 24 -22 8 12 -3 41 -15 41 -5 0 -9 -9 -9 -19z"/>
<path d="M687 513 c-11 -10 -8 -51 4 -59 6 -3 18 0 26 9 12 11 13 19 4 36 -12
22 -23 26 -34 14z"/>
<path d="M98 472 c-4 -23 -2 -59 4 -80 7 -26 7 -37 -1 -40 -16 -5 -14 -21 13
-77 22 -49 130 -175 149 -175 5 0 5 6 -2 13 -6 8 -8 17 -5 20 4 3 -5 12 -20
18 -14 7 -26 16 -26 21 0 5 5 6 11 2 8 -5 8 -1 0 14 -19 36 -12 38 10 4 12
-18 24 -31 27 -28 2 3 -10 27 -27 54 -34 53 -40 72 -16 52 29 -24 25 -4 -5 25
-24 23 -32 26 -45 15 -18 -15 -20 -51 -2 -44 8 3 18 -10 27 -33 22 -56 23 -60
7 -41 -8 10 -17 15 -20 12 -7 -8 -37 38 -42 67 -3 12 -9 27 -15 33 -13 13 -13
46 0 46 9 0 7 92 -3 120 -3 8 -7 22 -10 30 -2 8 -6 -4 -9 -28z"/>
<path d="M466 455 c-19 -20 -20 -26 -3 -49 27 -38 95 2 71 42 -15 23 -48 27
-68 7z"/>
<path d="M708 443 c-19 -5 -73 -91 -63 -101 4 -4 18 7 32 23 l25 30 -5 -77
c-4 -86 8 -105 19 -30 l8 47 9 -32 c11 -37 30 -45 23 -10 -3 12 -8 44 -11 70
-6 46 -5 48 14 42 29 -9 26 9 -4 29 -13 9 -26 15 -27 15 -2 -1 -11 -3 -20 -6z"/>
<path d="M260 381 c0 -32 23 -47 40 -26 8 10 8 19 0 34 -16 31 -40 26 -40 -8z"/>
<path d="M506 377 c-28 -8 -45 -22 -63 -50 -29 -47 -17 -73 15 -33 11 14 22
26 24 26 3 0 10 -31 17 -70 16 -87 40 -93 33 -7 -3 29 13 19 32 -19 23 -50 41
-32 23 22 -8 21 -17 52 -21 67 -7 27 -6 28 29 21 48 -9 46 10 -5 36 -21 11
-41 19 -42 19 -2 -1 -20 -6 -42 -12z m32 -40 c5 -25 -18 -53 -29 -35 -5 7 -9
23 -9 36 0 28 33 27 38 -1z"/>
<path d="M150 351 c0 -22 16 -36 24 -22 8 12 -3 41 -15 41 -5 0 -9 -9 -9 -19z"/>
<path d="M292 332 c-13 -2 -27 -14 -33 -28 -13 -37 -11 -52 6 -30 18 24 17 24
41 -42 10 -29 25 -59 33 -65 14 -12 13 -6 -7 53 -3 8 11 -3 30 -25 20 -22 38
-38 41 -35 3 3 -12 33 -34 67 -21 34 -39 65 -39 68 0 3 14 -2 31 -10 17 -9 34
-14 37 -11 14 15 -75 63 -106 58z"/>
<path d="M630 245 c-9 -11 -10 -19 -3 -26 14 -14 56 7 50 24 -6 19 -32 20 -47
2z"/>
<path d="M639 200 c-39 -21 -65 -47 -55 -57 3 -3 16 2 27 13 l22 19 -6 -37
c-6 -42 9 -52 19 -13 6 24 7 24 20 8 12 -16 13 -14 14 24 0 36 2 40 20 36 11
-3 20 0 20 6 0 6 -4 11 -9 11 -5 0 -15 2 -23 5 -7 2 -29 -4 -49 -15z"/>
<path d="M432 183 c2 -12 12 -18 28 -18 36 0 33 29 -3 33 -23 3 -28 0 -25 -15z"/>
<path d="M270 181 c0 -6 5 -13 10 -16 7 -4 6 -13 -1 -27 -9 -18 -8 -19 10 -13
12 3 21 3 21 -2 1 -4 12 -21 26 -38 18 -20 24 -24 20 -11 -7 19 -6 19 12 3 32
-29 37 -19 6 14 l-29 31 30 -6 c23 -5 18 0 -20 19 -27 14 -46 25 -41 25 5 0 3
7 -4 15 -14 17 -40 20 -40 6z"/>
<path d="M458 153 c-28 -4 -55 -29 -45 -40 4 -3 13 0 22 7 17 15 16 15 35 -25
10 -23 14 -26 17 -12 5 21 12 21 35 0 22 -19 24 -5 3 23 -21 28 -18 37 10 30
14 -4 25 -2 25 3 0 8 -54 23 -69 20 -3 -1 -18 -4 -33 -6z"/>
<path d="M703 140 c-3 -10 -16 -26 -30 -35 -31 -21 -25 -30 8 -12 60 32 68 40
54 54 -18 18 -26 16 -32 -7z"/>
<path d="M555 77 l-21 -24 31 2 c37 3 75 15 75 24 0 4 -6 8 -12 9 -7 0 -22 3
-33 6 -14 4 -27 -1 -40 -17z"/>
<path d="M410 60 c0 -17 7 -20 51 -20 31 0 48 4 44 10 -3 6 -17 10 -31 10 -13
0 -24 5 -24 10 0 6 -9 10 -20 10 -13 0 -20 -7 -20 -20z"/>
</g>
</svg>
